<?xml version="1.0" encoding="iso-8859-1"?>
<!-- Uploaded to: SVG Repo, www.svgrepo.com, Generator: SVG Repo Mixer Tools -->
<svg fill="#000000" height="800px" width="800px" version="1.1" id="Layer_1" xmlns="http://www.w3.org/2000/svg" xmlns:xlink="http://www.w3.org/1999/xlink" 
	 viewBox="0 0 472.615 472.615" xml:space="preserve">
<g>
	<g>
		<polygon points="384.778,0 366.634,0 366.634,163.836 105.98,163.836 105.98,0 0,0 0,472.615 77.596,472.615 77.596,229.851 
			395.019,229.851 395.019,472.615 472.615,472.615 472.615,76.697 		"/>
	</g>
</g>
<g>
	<g>
		<path d="M125.672,0v144.144h221.27V0H125.672z M314.427,117.677h-19.692V47.634h19.692V117.677z"/>
	</g>
</g>
<g>
	<g>
		<path d="M97.288,249.543v223.072h278.039V249.543H97.288z M338.552,423.138h-204.49v-19.692h204.49V423.138z M338.552,366.24
			h-204.49v-19.692h204.49V366.24z M338.552,309.345h-204.49v-19.692h204.49V309.345z"/>
	</g>
</g>
</svg>